<svg width="54" height="54" viewBox="0 0 54 54" fill="none" xmlns="http://www.w3.org/2000/svg">
<g filter="url(#filter0_d_65_53)">
<path fill-rule="evenodd" clip-rule="evenodd" d="M37 0H17C9.8203 0 4 5.8203 4 13V33C4 40.1797 9.8203 46 17 46H37C44.1797 46 50 40.1797 50 33V13C50 5.8203 44.1797 0 37 0ZM7 13C7 7.47715 11.4772 3 17 3H37C42.5228 3 47 7.47715 47 13V33C47 38.5228 42.5228 43 37 43H17C11.4772 43 7 38.5228 7 33V13ZM17.4609 15.6875H15.0234L19.9219 32H22.1719L25.5703 20.5156L25.9453 19.0508L26.332 20.5156L29.7656 32H32.0156L36.9609 15.6875H34.6172L31.4414 27.1953L30.9375 29.3047L30.4102 27.1953L27.1406 15.6875H24.8906L21.5859 27.1953L21.0703 29.2227L20.6133 27.1953L17.4609 15.6875Z" fill="#F70103"/>
</g>
<defs>
<filter id="filter0_d_65_53" x="0" y="0" width="54" height="54" filterUnits="userSpaceOnUse" color-interpolation-filters="sRGB">
<feFlood flood-opacity="0" result="BackgroundImageFix"/>
<feColorMatrix in="SourceAlpha" type="matrix" values="0 0 0 0 0 0 0 0 0 0 0 0 0 0 0 0 0 0 127 0" result="hardAlpha"/>
<feOffset dy="4"/>
<feGaussianBlur stdDeviation="2"/>
<feComposite in2="hardAlpha" operator="out"/>
<feColorMatrix type="matrix" values="0 0 0 0 0.325 0 0 0 0 0.21125 0 0 0 0 0.21125 0 0 0 1 0"/>
<feBlend mode="normal" in2="BackgroundImageFix" result="effect1_dropShadow_65_53"/>
<feBlend mode="normal" in="SourceGraphic" in2="effect1_dropShadow_65_53" result="shape"/>
</filter>
</defs>
</svg>
