<svg width="54" height="54" viewBox="0 0 54 54" fill="none" xmlns="http://www.w3.org/2000/svg">
<g filter="url(#filter0_d_68_113)">
<path fill-rule="evenodd" clip-rule="evenodd" d="M37 0H17C9.8203 0 4 5.8203 4 13V33C4 40.1797 9.8203 46 17 46H37C44.1797 46 50 40.1797 50 33V13C50 5.8203 44.1797 0 37 0ZM7 13C7 7.47715 11.4772 3 17 3H37C42.5228 3 47 7.47715 47 13V33C47 38.5228 42.5228 43 37 43H17C11.4772 43 7 38.5228 7 33V13ZM28.9648 31.7891C29.832 31.5625 30.543 31.2539 31.0977 30.8633C31.6602 30.4648 32.0742 30 32.3398 29.4688C32.6055 28.9297 32.7383 28.3594 32.7383 27.7578C32.7383 27.1484 32.6406 26.6289 32.4453 26.1992C32.25 25.7617 31.9453 25.3281 31.5312 24.8984C31.125 24.4688 30.4102 24.0117 29.3867 23.5273L26.3047 22.0625C25.4766 21.6641 24.9062 21.3125 24.5938 21.0078C24.2422 20.6484 24.0664 20.1953 24.0664 19.6484C24.0664 19.0859 24.3438 18.6328 24.8984 18.2891C25.2031 18.1016 25.6211 17.9492 26.1523 17.832C26.6914 17.707 27.5508 17.6445 28.7305 17.6445C29.918 17.6445 30.9922 17.7539 31.9531 17.9727V15.7344C30.8203 15.625 29.5703 15.5703 28.2031 15.5703C26.0859 15.5703 24.4531 15.9766 23.3047 16.7891C22.2578 17.5312 21.7344 18.5039 21.7344 19.707C21.7344 20.8789 22.1953 21.9102 23.1172 22.8008C23.5469 23.2148 24.2773 23.6641 25.3086 24.1484L28.3086 25.5195C29.0586 25.8633 29.6328 26.2422 30.0312 26.6562C30.2812 26.9219 30.4062 27.2969 30.4062 27.7812C30.4062 28.4062 30.082 28.9141 29.4336 29.3047C29.082 29.5156 28.6172 29.6875 28.0391 29.8203C27.4609 29.9453 26.5938 30.0078 25.4375 30.0078C24.2812 30.0078 23.1328 29.8789 21.9922 29.6211V31.8945C23.2656 32.043 24.5273 32.1172 25.7773 32.1172C27.0352 32.1172 28.0977 32.0078 28.9648 31.7891Z" fill="#F70103"/>
</g>
<defs>
<filter id="filter0_d_68_113" x="0" y="0" width="54" height="54" filterUnits="userSpaceOnUse" color-interpolation-filters="sRGB">
<feFlood flood-opacity="0" result="BackgroundImageFix"/>
<feColorMatrix in="SourceAlpha" type="matrix" values="0 0 0 0 0 0 0 0 0 0 0 0 0 0 0 0 0 0 127 0" result="hardAlpha"/>
<feOffset dy="4"/>
<feGaussianBlur stdDeviation="2"/>
<feComposite in2="hardAlpha" operator="out"/>
<feColorMatrix type="matrix" values="0 0 0 0 0.325 0 0 0 0 0.21125 0 0 0 0 0.21125 0 0 0 1 0"/>
<feBlend mode="normal" in2="BackgroundImageFix" result="effect1_dropShadow_68_113"/>
<feBlend mode="normal" in="SourceGraphic" in2="effect1_dropShadow_68_113" result="shape"/>
</filter>
</defs>
</svg>
